<svg xmlns="http://www.w3.org/2000/svg" x="0px" y="0px" width="100" height="100" viewBox="0 0 48 48">
    <path fill-rule="evenodd" d="M14.351,41.507	c-1.036-1.32-2.001-2.933-2.627-4.653l-0.36-1.267l-0.167-0.08c-0.208-0.133-0.393-0.293-0.561-0.453l-1.341-1.347	C8.271,32.68,8.003,31.147,8.003,30v-4c0-0.2,0.032-0.387,0.087-0.56c0.14-0.453,0.444-0.867,0.876-1.147	C9.259,24.12,9.613,24,10.003,24c0.264,0,0.519,0.107,0.707,0.293l1.293,1.293V20c0-5.04,3.312-9,8-9	c1.413,0,2.781,0.707,3.809,1.493l0.189,0.173l0.189-0.173C25.219,11.707,26.587,11,28.003,11c4.687,0,8,3.96,8,9v5.587l1.289-1.293	C37.481,24.107,37.735,24,38.001,24c0.389,0,0.743,0.12,1.036,0.293c0.432,0.28,0.736,0.693,0.876,1.147	c0.055,0.173,0.088,0.36,0.088,0.56v4c0,1.147-0.269,2.68-1.293,3.707l-1.341,1.347c-0.169,0.16-0.355,0.32-0.561,0.453l-0.167,0.08	l-0.36,1.267c-0.625,1.72-1.589,3.333-2.624,4.653C31.162,44.72,29.478,47,26.003,47h-4C18.527,47,16.843,44.72,14.351,41.507z" clip-rule="evenodd"></path><path fill-rule="evenodd" d="M36.003,28h-24l-2-5V12	c0-3.067,2.004-7,6-7h2c1-1,3-3,9-3s11,5.613,11,10v11L36.003,28z" clip-rule="evenodd"></path><path fill-rule="evenodd" d="M11.074,28.373l-2-5	c-0.047-0.12-0.071-0.24-0.071-0.373V12c0-3.36,2.185-8,7-8h1.595l0.187-0.187C19.075,2.64,21.478,1,27.003,1c6.532,0,12,6.04,12,11	v11c0,0.133-0.025,0.253-0.072,0.373l-2,5c-0.205,0.507-0.788,0.76-1.3,0.56c-0.512-0.213-0.763-0.787-0.557-1.307l1.929-4.813V12	c0-3.813-4.529-9-10-9c-5.687,0-7.451,1.867-8.293,2.707C18.522,5.893,18.267,6,18.003,6h-2c-3.213,0-5,3.253-5,6v10.813	l1.928,4.813c0.205,0.52-0.045,1.093-0.557,1.307C11.862,29.133,11.279,28.88,11.074,28.373z" clip-rule="evenodd"></path><path fill="#fff" fill-rule="evenodd" d="M15.142,38.893	c-1.32-1.693-2.487-3.813-2.939-6.013c-0.337-0.107-0.611-0.293-0.859-0.547L10.003,31c-0.745-0.747-1-1.947-1-3v-4	c0-0.467,0.412-1,1-1l3,3v-8c0-4.613,2.984-8,7-8c1.489,0,3.048,1.027,4,2c0.952-0.973,2.511-2,4-2c4.016,0,7,3.387,7,8v8l2.997-3	c0.588,0,1,0.533,1,1v4c0,1.053-0.255,2.253-1,3l-1.341,1.333c-0.249,0.253-0.521,0.44-0.857,0.547	c-0.452,2.2-1.619,4.32-2.937,6.013C30.291,42.213,28.903,44,26.003,44h-4C19.103,44,17.715,42.213,15.142,38.893z" clip-rule="evenodd"></path><path fill-rule="evenodd" d="M14.351,39.507	c-1.036-1.32-2.001-2.933-2.627-4.653l-0.36-1.267l-0.167-0.08c-0.208-0.133-0.393-0.293-0.561-0.453l-1.341-1.347	C8.271,30.68,8.003,29.147,8.003,28v-4c0-0.2,0.032-0.387,0.087-0.56c0.14-0.453,0.444-0.867,0.876-1.147	C9.259,22.12,9.613,22,10.003,22c0.264,0,0.519,0.107,0.707,0.293l1.293,1.293V18c0-5.04,3.312-9,8-9	c1.413,0,2.781,0.707,3.809,1.493l0.189,0.173l0.189-0.173C25.219,9.707,26.587,9,28.003,9c4.687,0,8,3.96,8,9v5.587l1.289-1.293	C37.481,22.107,37.735,22,38.001,22c0.389,0,0.743,0.12,1.036,0.293c0.432,0.28,0.736,0.693,0.876,1.147	c0.055,0.173,0.088,0.36,0.088,0.56v4c0,1.147-0.269,2.68-1.293,3.707l-1.341,1.347c-0.169,0.16-0.355,0.32-0.561,0.453l-0.167,0.08	l-0.36,1.267c-0.625,1.72-1.589,3.333-2.624,4.653C31.162,42.72,29.478,45,26.003,45h-4C18.527,45,16.843,42.72,14.351,39.507z M32.074,38.28c1.257-1.613,2.336-3.6,2.748-5.6c0.072-0.347,0.327-0.627,0.667-0.747c0.16-0.053,0.301-0.133,0.463-0.307	l1.341-1.333c0.467-0.467,0.708-1.333,0.708-2.293v-3.587l-2.291,2.293c-0.628,0.627-1.707,0.173-1.707-0.707v-8	c0-4.187-2.656-7-6-7c-1.093,0-2.408,0.8-3.285,1.693c-0.392,0.413-1.039,0.413-1.431,0C22.41,11.8,21.095,11,20.003,11	c-3.345,0-6,2.813-6,7v8c0,0.893-1.08,1.333-1.708,0.707l-2.292-2.293V28c0,0.96,0.24,1.827,0.707,2.293l1.341,1.347	c0.159,0.147,0.301,0.24,0.463,0.293c0.341,0.12,0.596,0.4,0.668,0.747c0.412,2,1.491,3.987,2.749,5.6	c2.655,3.427,3.747,4.72,6.072,4.72h4C28.327,43,29.419,41.707,32.074,38.28z" clip-rule="evenodd"></path><path fill-rule="evenodd" d="M18.003,28c-2.356,0-5-2.64-5-5	c0-1.427,3.893-2,6-2c1.812,0,4,1.053,4,3C23.003,26.133,21.715,28,18.003,28z" clip-rule="evenodd"></path><path fill-rule="evenodd" d="M29.998,28c2.356,0,5-2.64,5-5	c0-1.427-3.893-2-6-2c-1.812,0-4,1.053-4,3C24.998,26.133,26.286,28,29.998,28z" clip-rule="evenodd"></path><path fill-rule="evenodd" d="M21.006,23.493	c0-0.267,0.224-0.493,0.5-0.493h4.995c0.275,0,0.5,0.227,0.5,0.493c0,0.28-0.225,0.507-0.5,0.507h-4.995	C21.23,24,21.006,23.773,21.006,23.493z" clip-rule="evenodd"></path><path fill-rule="evenodd" d="M20.003,36c0-0.547,0.448-1,1-1h6	c0.551,0,1,0.453,1,1s-0.449,1-1,1h-6C20.451,37,20.003,36.547,20.003,36z" clip-rule="evenodd"></path>
</svg>